# Blender v3.2.2 OBJ File: 'projectgamejam.blend'
# www.blender.org
mtllib Clock.mtl
o Circle.010
v 27.433575 11.600442 -14.777569
v 27.433575 11.983126 -14.701448
v 27.433575 12.307549 -14.484675
v 27.433575 12.524322 -14.160253
v 27.433575 12.600442 -13.777569
v 27.433575 12.524322 -13.394885
v 27.433575 12.307549 -13.070462
v 27.433575 11.983126 -12.853689
v 27.433575 11.600442 -12.777569
v 27.433575 11.217758 -12.853689
v 27.433575 10.893335 -13.070462
v 27.433575 10.676562 -13.394885
v 27.433575 10.600442 -13.777569
v 27.433575 10.676562 -14.160253
v 27.433575 10.893335 -14.484675
v 27.433575 11.217758 -14.701448
v 27.531950 11.983126 -14.701448
v 27.531950 11.600442 -14.777569
v 27.531950 12.307549 -14.484675
v 27.531950 12.524322 -14.160253
v 27.531950 12.600442 -13.777569
v 27.531950 12.524322 -13.394885
v 27.531950 12.307549 -13.070462
v 27.531950 11.983126 -12.853689
v 27.531950 11.600442 -12.777569
v 27.531950 11.217758 -12.853689
v 27.531950 10.893335 -13.070462
v 27.531950 10.676562 -13.394885
v 27.531950 10.600442 -13.777569
v 27.531950 10.676562 -14.160253
v 27.531950 10.893335 -14.484675
v 27.531950 11.217758 -14.701448
v 27.531950 11.935705 -14.586966
v 27.531950 11.600442 -14.653653
v 27.531950 12.219927 -14.397054
v 27.531950 12.409839 -14.112832
v 27.531950 12.476526 -13.777569
v 27.531950 12.409839 -13.442306
v 27.531950 12.219927 -13.158084
v 27.531950 11.935705 -12.968172
v 27.531950 11.600442 -12.901484
v 27.531950 11.265179 -12.968172
v 27.531950 10.980957 -13.158084
v 27.531950 10.791045 -13.442306
v 27.531950 10.724358 -13.777569
v 27.531950 10.791045 -14.112832
v 27.531950 10.980957 -14.397054
v 27.531950 11.265179 -14.586966
v 27.568527 11.983126 -14.701448
v 27.607012 11.968110 -14.665197
v 27.607012 11.600442 -14.738331
v 27.568527 11.600442 -14.777569
v 27.568527 12.307549 -14.484675
v 27.607012 12.279803 -14.456930
v 27.568527 12.524322 -14.160253
v 27.607012 12.488070 -14.145237
v 27.568527 12.600442 -13.777569
v 27.607012 12.561204 -13.777569
v 27.568527 12.524322 -13.394885
v 27.607012 12.488070 -13.409901
v 27.568527 12.307549 -13.070462
v 27.607012 12.279803 -13.098207
v 27.568527 11.983126 -12.853689
v 27.607012 11.968110 -12.889940
v 27.568527 11.600442 -12.777569
v 27.607012 11.600442 -12.816807
v 27.568527 11.217758 -12.853689
v 27.607012 11.232774 -12.889940
v 27.568527 10.893335 -13.070462
v 27.607012 10.921081 -13.098207
v 27.568527 10.676562 -13.394885
v 27.607012 10.712813 -13.409901
v 27.568527 10.600442 -13.777569
v 27.607012 10.639680 -13.777569
v 27.568527 10.676562 -14.160253
v 27.607012 10.712813 -14.145237
v 27.568527 10.893335 -14.484675
v 27.607012 10.921081 -14.456930
v 27.568527 11.217758 -14.701448
v 27.607012 11.232774 -14.665197
v 27.607012 11.950721 -14.623217
v 27.568527 11.935705 -14.586966
v 27.568527 11.600442 -14.653653
v 27.607012 11.600442 -14.692891
v 27.607012 12.247673 -14.424799
v 27.568527 12.219927 -14.397054
v 27.607012 12.446090 -14.127848
v 27.568527 12.409839 -14.112832
v 27.607012 12.515764 -13.777569
v 27.568527 12.476526 -13.777569
v 27.607012 12.446090 -13.427290
v 27.568527 12.409839 -13.442306
v 27.607012 12.247673 -13.130339
v 27.568527 12.219927 -13.158084
v 27.607012 11.950721 -12.931921
v 27.568527 11.935705 -12.968172
v 27.607012 11.600442 -12.862247
v 27.568527 11.600442 -12.901484
v 27.607012 11.250163 -12.931921
v 27.568527 11.265179 -12.968172
v 27.607012 10.953212 -13.130338
v 27.568527 10.980957 -13.158084
v 27.607012 10.754794 -13.427290
v 27.568527 10.791045 -13.442306
v 27.607012 10.685120 -13.777569
v 27.568527 10.724358 -13.777569
v 27.607012 10.754794 -14.127848
v 27.568527 10.791045 -14.112832
v 27.607012 10.953211 -14.424799
v 27.568527 10.980957 -14.397054
v 27.607012 11.250163 -14.623217
v 27.568527 11.265179 -14.586966
vt 0.000000 0.000000
vt 0.000000 0.000000
vt 0.000000 0.000000
vt 0.000000 0.000000
vt 0.000000 0.000000
vt 0.000000 0.000000
vt 0.000000 0.000000
vt 0.000000 0.000000
vt 0.000000 0.000000
vt 0.000000 0.000000
vt 0.000000 0.000000
vt 0.000000 0.000000
vt 0.000000 0.000000
vt 0.000000 0.000000
vt 0.000000 0.000000
vt 0.000000 0.000000
vt 0.000000 0.000000
vt 0.000000 0.000000
vt 0.000000 0.000000
vt 0.000000 0.000000
vt 0.000000 0.000000
vt 0.000000 0.000000
vt 0.000000 0.000000
vt 0.000000 0.000000
vt 0.000000 0.000000
vt 0.000000 0.000000
vt 0.000000 0.000000
vt 0.000000 0.000000
vt 0.000000 0.000000
vt 0.000000 0.000000
vt 0.000000 0.000000
vt 0.000000 0.000000
vt 0.000000 0.000000
vt 0.000000 0.000000
vt 0.000000 0.000000
vt 0.000000 0.000000
vt 0.000000 0.000000
vt 0.000000 0.000000
vt 0.000000 0.000000
vt 0.000000 0.000000
vt 0.000000 0.000000
vt 0.000000 0.000000
vt 0.000000 0.000000
vt 0.000000 0.000000
vt 0.000000 0.000000
vt 0.000000 0.000000
vt 0.000000 0.000000
vt 0.000000 0.000000
vt 0.000000 0.000000
vt 0.000000 0.000000
vt 0.000000 0.000000
vt 0.000000 0.000000
vt 0.000000 0.000000
vt 0.000000 0.000000
vt 0.000000 0.000000
vt 0.000000 0.000000
vt 0.000000 0.000000
vt 0.000000 0.000000
vt 0.000000 0.000000
vt 0.000000 0.000000
vt 0.000000 0.000000
vt 0.000000 0.000000
vt 0.000000 0.000000
vt 0.000000 0.000000
vt 0.000000 0.000000
vt 0.000000 0.000000
vt 0.000000 0.000000
vt 0.000000 0.000000
vt 0.000000 0.000000
vt 0.000000 0.000000
vt 0.000000 0.000000
vt 0.000000 0.000000
vt 0.000000 0.000000
vt 0.000000 0.000000
vt 0.000000 0.000000
vt 0.000000 0.000000
vt 0.000000 0.000000
vt 0.000000 0.000000
vt 0.000000 0.000000
vt 0.000000 0.000000
vt 0.000000 0.000000
vt 0.000000 0.000000
vt 0.000000 0.000000
vt 0.000000 0.000000
vt 0.000000 0.000000
vt 0.000000 0.000000
vt 0.000000 0.000000
vt 0.000000 0.000000
vt 0.000000 0.000000
vt 0.000000 0.000000
vt 0.000000 0.000000
vt 0.000000 0.000000
vt 0.000000 0.000000
vt 0.000000 0.000000
vt 0.000000 0.000000
vt 0.000000 0.000000
vt 0.000000 0.000000
vt 0.000000 0.000000
vt 0.000000 0.000000
vt 0.000000 0.000000
vt 0.000000 0.000000
vt 0.000000 0.000000
vt 0.000000 0.000000
vt 0.000000 0.000000
vt 0.000000 0.000000
vt 0.000000 0.000000
vt 0.000000 0.000000
vt 0.000000 0.000000
vt 0.000000 0.000000
vt 0.000000 0.000000
vt 0.000000 0.000000
vt 0.000000 0.000000
vn -1.0000 0.0000 0.0000
vn 0.0000 0.0000 1.0000
vn 0.0000 0.3827 0.9239
vn 0.4055 0.3498 0.8445
vn 0.4055 0.0000 0.9141
vn 0.0000 -0.3827 0.9239
vn 0.0000 -0.7071 0.7071
vn 0.0000 0.7071 -0.7071
vn 0.0000 0.9239 -0.3827
vn 0.0000 -0.9239 0.3827
vn 0.0000 1.0000 0.0000
vn 0.0000 -1.0000 0.0000
vn 0.0000 0.9239 0.3827
vn 0.0000 -0.9239 -0.3827
vn 0.0000 0.7071 0.7071
vn 0.0000 -0.7071 -0.7071
vn 0.0000 -0.3827 -0.9239
vn 0.0000 0.0000 -1.0000
vn 0.0000 0.3827 -0.9239
vn 0.9088 0.2950 0.2950
vn 0.9088 0.1597 0.3855
vn 0.9417 -0.1287 -0.3107
vn 0.9417 -0.2378 -0.2378
vn 0.4055 -0.3498 0.8445
vn 0.4054 -0.6464 0.6464
vn 0.9088 0.3855 0.1597
vn 0.9417 -0.3107 -0.1287
vn 0.4055 0.6464 0.6464
vn 0.9088 0.4172 -0.0000
vn 0.9417 -0.3363 0.0000
vn 0.4055 0.8445 0.3498
vn 0.9088 0.3855 -0.1597
vn 0.9417 -0.3107 0.1287
vn 0.4054 0.9141 0.0000
vn 0.9088 0.2950 -0.2950
vn 0.9417 -0.2378 0.2378
vn 0.4054 0.8445 -0.3498
vn 0.9088 -0.1597 -0.3855
vn 0.9088 -0.0000 -0.4172
vn 0.9417 0.0000 0.3363
vn 0.9417 0.1287 0.3107
vn 0.3710 -0.0000 -0.9286
vn 0.3710 -0.3554 -0.8580
vn 0.4055 0.6464 -0.6464
vn 0.9088 -0.2950 -0.2950
vn 0.9417 0.2378 0.2378
vn 0.3710 0.8580 -0.3554
vn 0.3710 0.6567 -0.6567
vn 0.3710 -0.6567 0.6567
vn 0.3710 -0.3554 0.8580
vn 0.9088 0.1597 -0.3855
vn 0.9417 -0.1287 0.3107
vn 0.3710 -0.8580 0.3554
vn 0.3710 0.9286 -0.0000
vn 0.3710 -0.9286 0.0000
vn 0.3710 0.8580 0.3554
vn 0.3710 -0.8580 -0.3554
vn 0.3710 0.6567 0.6567
vn 0.3710 -0.6567 -0.6567
vn 0.3710 0.3554 0.8580
vn 0.3710 0.0000 0.9286
vn 0.3710 0.3554 -0.8580
vn 0.4054 -0.8445 0.3498
vn 0.9088 0.0000 0.4172
vn 0.9417 -0.0000 -0.3363
vn 0.4054 -0.9141 0.0000
vn 0.9088 -0.1597 0.3855
vn 0.9417 0.1287 -0.3107
vn 0.4055 -0.8445 -0.3498
vn 0.9088 -0.2950 0.2950
vn 0.9417 0.2378 -0.2378
vn 0.4055 -0.6464 -0.6464
vn 0.9088 -0.3855 0.1597
vn 0.9417 0.3107 -0.1287
vn 0.4055 -0.3498 -0.8445
vn 0.9088 -0.4172 0.0000
vn 0.9417 0.3363 0.0000
vn 0.4055 0.0000 -0.9141
vn 0.9088 -0.3855 -0.1597
vn 0.9417 0.3107 0.1287
vn 0.4055 0.3498 -0.8445
usemtl None
s 1
f 2/1/1 1/2/1 16/3/1 15/4/1 14/5/1 13/6/1 12/7/1 11/8/1 10/9/1 9/10/1 8/11/1 7/12/1 6/13/1 5/14/1 4/15/1 3/16/1
f 34/17/2 48/18/3 112/19/4 83/20/5
f 10/9/6 11/8/7 27/21/7 26/22/6
f 3/16/8 4/15/9 20/23/9 19/24/8
f 11/8/7 12/7/10 28/25/10 27/21/7
f 4/15/9 5/14/11 21/26/11 20/23/9
f 12/7/10 13/6/12 29/27/12 28/25/10
f 5/14/11 6/13/13 22/28/13 21/26/11
f 13/6/12 14/5/14 30/29/14 29/27/12
f 6/13/13 7/12/15 23/30/15 22/28/13
f 14/5/14 15/4/16 31/31/16 30/29/14
f 7/12/15 8/11/3 24/32/3 23/30/15
f 15/4/16 16/3/17 32/33/17 31/31/16
f 8/11/3 9/10/2 25/34/2 24/32/3
f 1/2/18 2/1/19 17/35/19 18/36/18
f 16/3/17 1/2/18 18/36/18 32/33/17
f 9/10/2 10/9/6 26/22/6 25/34/2
f 2/1/19 3/16/8 19/24/8 17/35/19
f 62/37/20 64/38/21 95/39/22 93/40/23
f 35/41/7 33/42/6 82/43/24 86/44/25
f 60/45/26 62/37/20 93/40/23 91/46/27
f 48/18/3 47/47/15 110/48/28 112/19/4
f 58/49/29 60/45/26 91/46/27 89/50/30
f 47/47/15 46/51/13 108/52/31 110/48/28
f 56/53/32 58/49/29 89/50/30 87/54/33
f 46/51/13 45/55/11 106/56/34 108/52/31
f 54/57/35 56/53/32 87/54/33 85/58/36
f 45/55/11 44/59/9 104/60/37 106/56/34
f 80/61/38 51/62/39 84/63/40 111/64/41
f 32/33/17 18/36/18 52/65/42 79/66/43
f 44/59/9 43/67/8 102/68/44 104/60/37
f 78/69/45 80/61/38 111/64/41 109/70/46
f 19/24/8 20/23/9 55/71/47 53/72/48
f 26/22/6 27/21/7 69/73/49 67/74/50
f 51/62/39 50/75/51 81/76/52 84/63/40
f 27/21/7 28/25/10 71/77/53 69/73/49
f 20/23/9 21/26/11 57/78/54 55/71/47
f 28/25/10 29/27/12 73/79/55 71/77/53
f 21/26/11 22/28/13 59/80/56 57/78/54
f 29/27/12 30/29/14 75/81/57 73/79/55
f 22/28/13 23/30/15 61/82/58 59/80/56
f 30/29/14 31/31/16 77/83/59 75/81/57
f 23/30/15 24/32/3 63/84/60 61/82/58
f 31/31/16 32/33/17 79/66/43 77/83/59
f 24/32/3 25/34/2 65/85/61 63/84/60
f 33/42/6 34/17/2 83/20/5 82/43/24
f 25/34/2 26/22/6 67/74/50 65/85/61
f 17/35/19 19/24/8 53/72/48 49/86/62
f 36/87/10 35/41/7 86/44/25 88/88/63
f 64/38/21 66/89/64 97/90/65 95/39/22
f 37/91/12 36/87/10 88/88/63 90/92/66
f 66/89/64 68/93/67 99/94/68 97/90/65
f 38/95/14 37/91/12 90/92/66 92/96/69
f 68/93/67 70/97/70 101/98/71 99/94/68
f 39/99/16 38/95/14 92/96/69 94/100/72
f 70/97/70 72/101/73 103/102/74 101/98/71
f 40/103/17 39/99/16 94/100/72 96/104/75
f 72/101/73 74/105/76 105/106/77 103/102/74
f 41/107/18 40/103/17 96/104/75 98/108/78
f 74/105/76 76/109/79 107/110/80 105/106/77
f 42/111/19 41/107/18 98/108/78 100/112/81
f 76/109/79 78/69/45 109/70/46 107/110/80
f 43/67/8 42/111/19 100/112/81 102/68/44
f 50/75/51 54/57/35 85/58/36 81/76/52
f 50/75/51 51/62/39 52/65/42 49/86/62
f 54/57/35 50/75/51 49/86/62 53/72/48
f 56/53/32 54/57/35 53/72/48 55/71/47
f 58/49/29 56/53/32 55/71/47 57/78/54
f 60/45/26 58/49/29 57/78/54 59/80/56
f 62/37/20 60/45/26 59/80/56 61/82/58
f 64/38/21 62/37/20 61/82/58 63/84/60
f 66/89/64 64/38/21 63/84/60 65/85/61
f 68/93/67 66/89/64 65/85/61 67/74/50
f 70/97/70 68/93/67 67/74/50 69/73/49
f 72/101/73 70/97/70 69/73/49 71/77/53
f 74/105/76 72/101/73 71/77/53 73/79/55
f 76/109/79 74/105/76 73/79/55 75/81/57
f 78/69/45 76/109/79 75/81/57 77/83/59
f 80/61/38 78/69/45 77/83/59 79/66/43
f 51/62/39 80/61/38 79/66/43 52/65/42
f 82/43/24 83/20/5 84/63/40 81/76/52
f 86/44/25 82/43/24 81/76/52 85/58/36
f 88/88/63 86/44/25 85/58/36 87/54/33
f 90/92/66 88/88/63 87/54/33 89/50/30
f 92/96/69 90/92/66 89/50/30 91/46/27
f 94/100/72 92/96/69 91/46/27 93/40/23
f 96/104/75 94/100/72 93/40/23 95/39/22
f 98/108/78 96/104/75 95/39/22 97/90/65
f 100/112/81 98/108/78 97/90/65 99/94/68
f 102/68/44 100/112/81 99/94/68 101/98/71
f 104/60/37 102/68/44 101/98/71 103/102/74
f 106/56/34 104/60/37 103/102/74 105/106/77
f 108/52/31 106/56/34 105/106/77 107/110/80
f 110/48/28 108/52/31 107/110/80 109/70/46
f 112/19/4 110/48/28 109/70/46 111/64/41
f 83/20/5 112/19/4 111/64/41 84/63/40
f 18/36/18 17/35/19 49/86/62 52/65/42
o Circle.011
v 27.531950 11.935705 -14.586966
v 27.531950 11.600442 -14.653653
v 27.531950 12.219927 -14.397054
v 27.531950 12.409839 -14.112832
v 27.531950 12.476526 -13.777569
v 27.531950 12.409839 -13.442306
v 27.531950 12.219927 -13.158084
v 27.531950 11.935705 -12.968172
v 27.531950 11.600442 -12.901484
v 27.531950 11.265179 -12.968172
v 27.531950 10.980957 -13.158084
v 27.531950 10.791045 -13.442306
v 27.531950 10.724358 -13.777569
v 27.531950 10.791045 -14.112832
v 27.531950 10.980957 -14.397054
v 27.531950 11.265179 -14.586966
v 27.531950 11.613324 -13.808669
v 27.531950 11.600442 -13.811232
v 27.531950 11.624245 -13.801372
v 27.531950 11.631542 -13.790451
v 27.531950 11.634105 -13.777569
v 27.531950 11.631542 -13.764687
v 27.531950 11.624245 -13.753766
v 27.531950 11.613324 -13.746469
v 27.531950 11.600442 -13.743906
v 27.531950 11.587560 -13.746469
v 27.531950 11.576639 -13.753766
v 27.531950 11.569342 -13.764687
v 27.531950 11.566779 -13.777569
v 27.531950 11.569342 -13.790451
v 27.531950 11.576639 -13.801372
v 27.531950 11.587560 -13.808669
vt 0.000000 0.000000
vt 0.000000 0.000000
vt 0.000000 0.000000
vt 0.000000 0.000000
vt 0.000000 0.000000
vt 0.000000 0.000000
vt 0.000000 0.000000
vt 0.000000 0.000000
vt 0.000000 0.000000
vt 0.000000 0.000000
vt 0.000000 0.000000
vt 0.000000 0.000000
vt 0.000000 0.000000
vt 0.000000 0.000000
vt 0.000000 0.000000
vt 0.000000 0.000000
vt 0.000000 0.000000
vt 0.000000 0.000000
vt 0.000000 0.000000
vt 0.000000 0.000000
vt 0.000000 0.000000
vt 0.000000 0.000000
vt 0.000000 0.000000
vt 0.000000 0.000000
vt 0.000000 0.000000
vt 0.000000 0.000000
vt 0.000000 0.000000
vt 0.000000 0.000000
vt 0.000000 0.000000
vt 0.000000 0.000000
vt 0.000000 0.000000
vt 0.000000 0.000000
vn 1.0000 0.0000 0.0000
usemtl None
s 1
f 127/113/82 128/114/82 144/115/82 143/116/82
f 120/117/82 121/118/82 137/119/82 136/120/82
f 114/121/82 113/122/82 129/123/82 130/124/82
f 128/114/82 114/121/82 130/124/82 144/115/82
f 121/118/82 122/125/82 138/126/82 137/119/82
f 113/122/82 115/127/82 131/128/82 129/123/82
f 122/125/82 123/129/82 139/130/82 138/126/82
f 115/127/82 116/131/82 132/132/82 131/128/82
f 123/129/82 124/133/82 140/134/82 139/130/82
f 116/131/82 117/135/82 133/136/82 132/132/82
f 124/133/82 125/137/82 141/138/82 140/134/82
f 117/135/82 118/139/82 134/140/82 133/136/82
f 125/137/82 126/141/82 142/142/82 141/138/82
f 118/139/82 119/143/82 135/144/82 134/140/82
f 126/141/82 127/113/82 143/116/82 142/142/82
f 119/143/82 120/117/82 136/120/82 135/144/82
o Circle.012
v 27.531950 11.613324 -13.808669
v 27.531950 11.600442 -13.811232
v 27.531950 11.624245 -13.801372
v 27.531950 11.631542 -13.790451
v 27.531950 11.634105 -13.777569
v 27.531950 11.631542 -13.764687
v 27.531950 11.624245 -13.753766
v 27.531950 11.613324 -13.746469
v 27.531950 11.600442 -13.743906
v 27.531950 11.587560 -13.746469
v 27.531950 11.576639 -13.753766
v 27.531950 11.569342 -13.764687
v 27.531950 11.566779 -13.777569
v 27.531950 11.569342 -13.790451
v 27.531950 11.576639 -13.801372
v 27.531950 11.587560 -13.808669
v 27.559544 11.613324 -13.808669
v 27.559544 11.600442 -13.811232
v 27.559544 11.624245 -13.801372
v 27.559544 11.631542 -13.790451
v 27.559544 11.634105 -13.777569
v 27.559544 11.631542 -13.764687
v 27.559544 11.624245 -13.753766
v 27.559544 11.613324 -13.746469
v 27.559544 11.600442 -13.743906
v 27.559544 11.587560 -13.746469
v 27.559544 11.576639 -13.753766
v 27.559544 11.569342 -13.764687
v 27.559544 11.566779 -13.777569
v 27.559544 11.569342 -13.790451
v 27.559544 11.576639 -13.801372
v 27.559544 11.587560 -13.808669
v 27.531950 12.271015 -14.055328
v 27.531950 12.263718 -14.066250
v 27.531950 12.273577 -14.042446
v 27.559544 12.271015 -14.055328
v 27.559544 12.263718 -14.066250
v 27.559544 12.273577 -14.042446
v 27.531950 11.232020 -13.930174
v 27.531950 11.229458 -13.917292
v 27.531950 11.239317 -13.941094
v 27.559544 11.232020 -13.930174
v 27.559544 11.229458 -13.917292
v 27.559544 11.239317 -13.941094
v 27.571962 11.613324 -13.808669
v 27.571962 11.600442 -13.811232
v 27.571962 11.624245 -13.801372
v 27.571962 11.631542 -13.790451
v 27.571962 11.634105 -13.777569
v 27.571962 11.631542 -13.764687
v 27.571962 11.624245 -13.753766
v 27.571962 11.613324 -13.746469
v 27.571962 11.600442 -13.743906
v 27.571962 11.587560 -13.746469
v 27.571962 11.576639 -13.753766
v 27.571962 11.569342 -13.764687
v 27.571962 11.566779 -13.777569
v 27.571962 11.569342 -13.790451
v 27.571962 11.576639 -13.801372
v 27.571962 11.587560 -13.808669
vt 0.000000 0.000000
vt 0.000000 0.000000
vt 0.000000 0.000000
vt 0.000000 0.000000
vt 0.000000 0.000000
vt 0.000000 0.000000
vt 0.000000 0.000000
vt 0.000000 0.000000
vt 0.000000 0.000000
vt 0.000000 0.000000
vt 0.000000 0.000000
vt 0.000000 0.000000
vt 0.000000 0.000000
vt 0.000000 0.000000
vt 0.000000 0.000000
vt 0.000000 0.000000
vt 0.000000 0.000000
vt 0.000000 0.000000
vt 0.000000 0.000000
vt 0.000000 0.000000
vt 0.000000 0.000000
vt 0.000000 0.000000
vt 0.000000 0.000000
vt 0.000000 0.000000
vt 0.000000 0.000000
vt 0.000000 0.000000
vt 0.000000 0.000000
vt 0.000000 0.000000
vt 0.000000 0.000000
vt 0.000000 0.000000
vt 0.000000 0.000000
vt 0.000000 0.000000
vt 0.000000 0.000000
vt 0.000000 0.000000
vt 0.000000 0.000000
vt 0.000000 0.000000
vt 0.000000 0.000000
vt 0.000000 0.000000
vt 0.000000 0.000000
vt 0.000000 0.000000
vt 0.000000 0.000000
vt 0.000000 0.000000
vt 0.000000 0.000000
vt 0.000000 0.000000
vt 0.000000 0.000000
vt 0.000000 0.000000
vt 0.000000 0.000000
vt 0.000000 0.000000
vt 0.000000 0.000000
vt 0.000000 0.000000
vt 0.000000 0.000000
vt 0.000000 0.000000
vt 0.000000 0.000000
vt 0.000000 0.000000
vt 0.000000 0.000000
vt 0.000000 0.000000
vt 0.000000 0.000000
vt 0.000000 0.000000
vt 0.000000 0.000000
vt 0.000000 0.000000
vn -1.0000 -0.0000 0.0000
vn 0.0000 0.0000 -1.0000
vn 0.0000 0.3827 -0.9239
vn 0.0000 -0.7071 0.7071
vn 0.0000 -0.9239 0.3827
vn 0.0000 0.7730 0.6344
vn 0.0000 0.9478 0.3190
vn 0.0000 0.3827 0.9239
vn 0.0000 -0.7730 0.6344
vn 0.0000 -0.9478 0.3190
vn 0.0000 0.9239 0.3827
vn 0.0000 0.7071 0.7071
vn 0.0000 -0.0980 -0.9952
vn 0.0000 -0.4446 -0.8957
vn 0.0000 -0.3827 -0.9239
vn 0.0000 0.0000 1.0000
vn 0.0000 -0.3827 0.9239
vn 0.0000 0.0980 -0.9952
vn 0.0000 0.4446 -0.8957
vn 0.0000 0.8315 -0.5556
vn 0.0000 0.9239 -0.3826
vn 0.0000 0.9808 -0.1950
vn 1.0000 0.0000 0.0000
vn 0.0000 -0.9808 -0.1951
vn 0.0000 -0.9239 -0.3827
vn 0.0000 -0.8315 -0.5556
vn 0.0000 0.7071 -0.7071
vn 0.0000 0.9239 -0.3827
vn 0.0000 -0.9238 0.3828
vn 0.0000 1.0000 0.0000
vn 0.0000 -1.0000 0.0000
vn 0.0000 -0.9238 -0.3828
vn 0.0000 -0.7071 -0.7071
usemtl None
s 1
f 147/145/83 148/146/83 177/147/83 178/148/83
f 162/149/84 161/150/85 189/151/85 190/152/84
f 155/153/86 156/154/87 172/155/87 171/156/86
f 149/157/88 165/158/89 182/159/90 179/160/90
f 156/154/87 157/161/91 173/162/92 172/155/87
f 149/157/88 150/163/93 166/164/93 165/158/89
f 158/165/83 159/166/83 185/167/83 183/168/83
f 150/163/93 151/169/94 167/170/94 166/164/93
f 159/166/95 175/171/96 188/172/85 185/167/85
f 151/169/94 152/173/90 168/174/90 167/170/94
f 159/166/95 160/175/97 176/176/97 175/171/96
f 152/173/90 153/177/98 169/178/98 168/174/90
f 146/179/84 145/180/85 161/150/85 162/149/84
f 160/175/97 146/179/84 162/149/84 176/176/97
f 153/177/98 154/181/99 170/182/99 169/178/98
f 145/180/85 147/145/100 163/183/101 161/150/85
f 154/181/99 155/153/86 171/156/86 170/182/99
f 178/148/102 177/147/103 180/184/103 181/185/102
f 177/147/103 179/160/104 182/159/104 180/184/103
f 165/158/105 164/186/105 180/184/105 182/159/105
f 163/183/101 147/145/100 178/148/97 181/185/97
f 148/146/83 149/157/83 179/160/83 177/147/83
f 164/186/105 163/183/105 181/185/105 180/184/105
f 184/187/106 183/168/107 186/188/107 187/189/106
f 183/168/107 185/167/108 188/172/108 186/188/107
f 174/190/105 173/162/105 187/189/105 186/188/105
f 173/162/92 157/161/91 184/187/99 187/189/99
f 157/161/83 158/165/83 183/168/83 184/187/83
f 175/171/105 174/190/105 186/188/105 188/172/105
f 189/151/105 191/191/105 192/192/105 193/193/105 194/194/105 195/195/105 196/196/105 197/197/105 198/198/105 199/199/105 200/200/105 201/201/105 202/202/105 203/203/105 204/204/105 190/152/105
f 176/176/97 162/149/84 190/152/84 204/204/97
f 169/178/98 170/182/99 198/198/99 197/197/98
f 161/150/85 163/183/101 191/191/109 189/151/85
f 170/182/99 171/156/86 199/199/86 198/198/99
f 163/183/101 164/186/110 192/192/110 191/191/109
f 171/156/86 172/155/87 200/200/111 199/199/86
f 164/186/110 165/158/89 193/193/112 192/192/110
f 172/155/87 173/162/92 201/201/113 200/200/111
f 165/158/89 166/164/93 194/194/93 193/193/112
f 173/162/92 174/190/114 202/202/114 201/201/113
f 166/164/93 167/170/94 195/195/94 194/194/93
f 174/190/114 175/171/96 203/203/115 202/202/114
f 167/170/94 168/174/90 196/196/90 195/195/94
f 175/171/96 176/176/97 204/204/97 203/203/115
f 168/174/90 169/178/98 197/197/98 196/196/90
