# Blender v3.2.2 OBJ File: 'projectgamejam.blend'
# www.blender.org
mtllib Fridge.mtl
g Cube.002_Cube.010
v 1.008488 1.291468 13.954145
v 1.008488 5.723524 13.954145
v 1.008488 1.291468 10.994834
v 1.008488 5.723524 10.994834
v 3.498473 1.291468 13.954145
v 3.498473 5.723524 13.954145
v 3.498473 1.291468 10.994834
v 3.498473 5.723524 10.994834
v 1.008488 7.057440 13.954145
v 1.008488 7.594594 13.315746
v 1.008488 7.262999 13.905551
v 1.008488 7.437264 13.767162
v 1.008488 7.553705 13.560051
v 1.008488 7.594594 11.633234
v 1.008488 7.057440 10.994834
v 1.008488 7.553705 11.388929
v 1.008488 7.437264 11.181817
v 1.008488 7.262999 11.043429
v 3.498473 7.057440 10.994834
v 3.498473 7.594594 11.633234
v 3.498473 7.262999 11.043429
v 3.498473 7.437264 11.181817
v 3.498473 7.553705 11.388929
v 3.498473 7.594594 13.315746
v 3.498473 7.057440 13.954145
v 3.498473 7.553705 13.560051
v 3.498473 7.437264 13.767162
v 3.498473 7.262999 13.905551
v 1.008488 5.756910 13.782933
v 1.008488 5.756910 11.166047
v 1.008488 7.450184 11.514541
v 1.008488 7.486341 11.730577
v 1.008488 7.347218 11.331394
v 1.008488 7.193117 11.209019
v 1.008488 7.011343 11.166047
v 1.008488 7.486341 13.218403
v 1.008488 7.450184 13.434440
v 1.008488 7.347218 13.617586
v 1.008488 7.193117 13.739961
v 1.008488 7.011343 13.782933
v 1.008488 1.426615 11.188170
v 1.008488 1.426615 13.760810
v 1.008488 5.690978 13.760810
v 1.008488 5.690978 11.188170
vt 0.125000 0.500000
vt 0.125000 0.750000
vt 0.125000 0.750000
vt 0.125000 0.500000
vt 0.375000 0.250000
vt 0.625000 0.250000
vt 0.625000 0.500000
vt 0.375000 0.500000
vt 0.625000 0.750000
vt 0.375000 0.750000
vt 0.625000 1.000000
vt 0.375000 1.000000
vt 0.625000 0.750000
vt 0.625000 1.000000
vt 0.625000 0.553931
vt 0.875000 0.553931
vt 0.875000 0.696069
vt 0.625000 0.696069
vt 0.625000 0.250000
vt 0.625000 0.500000
vt 0.625000 0.504105
vt 0.625000 0.515796
vt 0.625000 0.533293
vt 0.625000 0.716707
vt 0.625000 0.734204
vt 0.625000 0.745895
vt 0.875000 0.533293
vt 0.625000 0.500000
vt 0.875000 0.500000
vt 0.625000 0.250000
vt 0.625000 0.500000
vt 0.625000 0.250000
vt 0.875000 0.716707
vt 0.875000 0.750000
vt 0.625000 0.750000
vt 0.625000 1.000000
vt 0.625000 1.000000
vt 0.625000 0.750000
vt 0.875000 0.500000
vt 0.875000 0.533293
vt 0.625000 1.000000
vt 0.625000 1.000000
vt 0.875000 0.553931
vt 0.875000 0.696069
vt 0.875000 0.716707
vt 0.875000 0.750000
vt 0.625000 0.250000
vt 0.625000 0.250000
vt 0.625000 1.000000
vt 0.625000 1.000000
vt 0.625000 0.250000
vt 0.625000 0.000000
vt 0.625000 0.000000
vt 0.625000 0.250000
vt 0.375000 0.250000
vt 0.625000 0.250000
vt 0.625000 1.000000
vt 0.375000 1.000000
vt 0.625000 0.000000
vn -1.0000 0.0000 0.0000
vn 0.0000 0.0000 -1.0000
vn 1.0000 0.0000 0.0000
vn 0.0000 0.0000 1.0000
vn 0.0000 -1.0000 0.0000
vn 0.0000 0.1158 0.9933
vn 0.0000 0.9966 -0.0828
vn 0.0000 0.9966 0.0828
vn 0.0000 0.1158 -0.9933
vn 0.0000 0.9431 -0.3325
vn 0.0000 0.7610 -0.6487
vn 0.0000 0.4364 -0.8997
vn 0.0000 0.9431 0.3325
vn 0.0000 0.7610 0.6487
vn 0.0000 0.4364 0.8997
usemtl None
s 1
f 3/1/1 1/2/1 42/3/1 41/4/1
f 3/5/2 4/6/2 8/7/2 7/8/2
f 7/8/3 8/7/3 6/9/3 5/10/3
f 5/10/4 6/9/4 2/11/4 1/12/4
f 3/1/5 7/8/5 5/10/5 1/2/5
f 2/11/4 6/9/4 25/13/6 9/14/6
f 20/15/7 14/16/7 10/17/8 24/18/8
f 8/7/2 4/6/2 15/19/9 19/20/9
f 6/9/3 8/7/3 19/20/3 21/21/3 22/22/3 23/23/3 20/15/3 24/18/3 26/24/3 27/25/3 28/26/3 25/13/3
f 14/16/7 20/15/7 23/23/10 16/27/10
f 16/27/10 23/23/10 22/28/11 17/29/11
f 17/30/11 22/28/11 21/31/12 18/32/12
f 18/32/12 21/31/12 19/20/9 15/19/9
f 24/18/8 10/17/8 13/33/13 26/24/13
f 26/24/13 13/33/13 12/34/14 27/35/14
f 27/35/14 12/36/14 11/37/15 28/38/15
f 28/38/15 11/37/15 9/14/6 25/13/6
f 16/27/1 17/29/1 33/39/1 31/40/1
f 11/37/1 12/36/1 38/41/1 39/42/1
f 10/17/1 14/16/1 32/43/1 36/44/1
f 12/34/1 13/33/1 37/45/1 38/46/1
f 13/33/1 10/17/1 36/44/1 37/45/1
f 15/19/1 4/6/1 30/47/1 35/48/1
f 2/11/1 9/14/1 40/49/1 29/50/1
f 18/32/1 15/19/1 35/48/1 34/51/1
f 14/16/1 16/27/1 31/40/1 32/43/1
f 9/14/1 11/37/1 39/42/1 40/49/1
f 4/6/1 2/52/1 29/53/1 30/47/1
f 17/30/1 18/32/1 34/51/1 33/54/1
f 4/6/1 3/5/1 41/55/1 44/56/1
f 1/12/1 2/11/1 43/57/1 42/58/1
f 2/52/1 4/6/1 44/56/1 43/59/1
g Cube.003_Cube.002
v 0.504663 3.299229 11.571393
v 0.504663 5.139638 11.571393
v 0.504663 3.299229 11.461984
v 0.504663 5.139638 11.461984
v 0.614073 3.195152 11.461984
v 0.614073 5.243716 11.461984
v 0.614073 3.195152 11.571393
v 0.614073 5.243716 11.571393
v 0.777879 3.299229 11.571393
v 0.777879 3.299229 11.461984
v 0.777879 5.139638 11.461984
v 0.777879 5.139638 11.571393
v 0.777879 3.195152 11.571393
v 0.777879 3.195152 11.461984
v 0.777879 5.243716 11.461984
v 0.777879 5.243716 11.571393
v 0.671404 3.299229 11.571393
v 0.614073 3.356561 11.571393
v 0.556741 3.299229 11.571393
v 0.614073 3.241898 11.571393
v 0.630865 3.316021 11.571393
v 0.614073 5.082307 11.571393
v 0.671404 5.139638 11.571393
v 0.614073 5.196970 11.571393
v 0.556741 5.139638 11.571393
v 0.630865 5.122847 11.571393
v 0.614073 3.356561 11.461984
v 0.671404 3.299229 11.461984
v 0.614073 3.241898 11.461984
v 0.556741 3.299229 11.461984
v 0.630865 3.316021 11.461984
v 0.671404 5.139638 11.461984
v 0.614073 5.082307 11.461984
v 0.556741 5.139638 11.461984
v 0.614073 5.196970 11.461984
v 0.630865 5.122847 11.461984
v 0.561995 3.195152 11.461984
v 0.504663 3.252483 11.461984
v 0.521455 3.211944 11.461984
v 0.504663 3.252483 11.571393
v 0.561995 3.195152 11.571393
v 0.521455 3.211944 11.571393
v 0.561995 5.243716 11.571393
v 0.504663 5.186385 11.571393
v 0.521455 5.226924 11.571393
v 0.504663 5.186385 11.461984
v 0.561995 5.243716 11.461984
v 0.521455 5.226924 11.461984
v 0.504663 6.071317 11.571393
v 0.504663 6.953425 11.571393
v 0.504663 6.071317 11.461984
v 0.504663 6.953425 11.461984
v 0.614073 5.967239 11.461984
v 0.614073 7.057503 11.461984
v 0.614073 5.967239 11.571393
v 0.614073 7.057503 11.571393
v 0.777879 6.071317 11.571393
v 0.777879 6.071317 11.461984
v 0.777879 6.953425 11.461984
v 0.777879 6.953425 11.571393
v 0.777879 5.967239 11.571393
v 0.777879 5.967239 11.461984
v 0.777879 7.057503 11.461984
v 0.777879 7.057503 11.571393
v 0.671404 6.071317 11.571393
v 0.614073 6.128648 11.571393
v 0.556741 6.071317 11.571393
v 0.614073 6.013985 11.571393
v 0.630865 6.088109 11.571393
v 0.614073 6.896093 11.571393
v 0.671404 6.953425 11.571393
v 0.614073 7.010756 11.571393
v 0.556741 6.953425 11.571393
v 0.630865 6.936633 11.571393
v 0.614073 6.128648 11.461984
v 0.671404 6.071317 11.461984
v 0.614073 6.013985 11.461984
v 0.556741 6.071317 11.461984
v 0.630865 6.088109 11.461984
v 0.671404 6.953425 11.461984
v 0.614073 6.896093 11.461984
v 0.556741 6.953425 11.461984
v 0.614073 7.010756 11.461984
v 0.630865 6.936633 11.461984
v 0.561995 5.967239 11.461984
v 0.504663 6.024570 11.461984
v 0.521455 5.984031 11.461984
v 0.504663 6.024570 11.571393
v 0.561995 5.967239 11.571393
v 0.521455 5.984031 11.571393
v 0.561995 7.057503 11.571393
v 0.504663 7.000172 11.571393
v 0.521455 7.040710 11.571393
v 0.504663 7.000172 11.461984
v 0.561995 7.057503 11.461984
v 0.521455 7.040710 11.461984
vt 0.375000 0.000000
vt 0.625000 0.000000
vt 0.625000 0.250000
vt 0.375000 0.250000
vt 0.625000 0.500000
vt 0.625000 0.368998
vt 0.625000 0.250000
vt 0.625000 0.288370
vt 0.625000 0.381002
vt 0.625000 0.500000
vt 0.375000 0.881002
vt 0.382788 0.750000
vt 0.617212 0.750000
vt 0.625000 0.881002
vt 0.625000 1.000000
vt 0.375000 1.000000
vt 0.375000 0.750000
vt 0.375000 1.000000
vt 0.375000 0.961630
vt 0.375000 0.868998
vt 0.375000 0.750000
vt 0.625000 0.500000
vt 0.625000 0.500000
vt 0.625000 0.500000
vt 0.375000 0.500000
vt 0.375000 0.500000
vt 0.375000 0.750000
vt 0.625000 0.000000
vt 0.375000 0.750000
vt 0.375000 0.750000
vt 0.382788 0.500000
vt 0.617212 0.500000
vt 0.375000 0.500000
vt 0.375000 0.500000
vt 0.375000 0.500000
vt 0.743998 0.500000
vt 0.743998 0.750000
vt 0.625000 0.750000
vt 0.625000 0.750000
vt 0.625000 0.750000
vt 0.625000 0.750000
vt 0.625000 0.750000
vt 0.256002 0.500000
vt 0.256002 0.750000
vt 0.375000 0.368998
vt 0.375000 0.381002
vt 0.375000 0.288370
vt 0.375000 0.250000
vt 0.375000 0.000000
vt 0.625000 0.868998
vt 0.625000 0.961630
vt 0.625000 1.000000
vt 0.375000 0.750000
vt 0.375000 0.750000
vt 0.622719 0.750000
vt 0.377281 0.500000
vt 0.625000 0.500000
vt 0.625000 0.500000
vt 0.375000 0.500000
vt 0.625000 0.750000
vt 0.125000 0.750000
vt 0.125000 0.500000
vt 0.375000 0.250000
vt 0.375000 0.000000
vt 0.875000 0.500000
vt 0.875000 0.750000
vt 0.625000 0.000000
vt 0.625000 0.250000
vt 0.375000 0.000000
vt 0.625000 0.000000
vt 0.625000 0.250000
vt 0.375000 0.250000
vt 0.625000 0.500000
vt 0.625000 0.368998
vt 0.625000 0.250000
vt 0.625000 0.288370
vt 0.625000 0.381002
vt 0.625000 0.500000
vt 0.375000 0.881002
vt 0.382788 0.750000
vt 0.617212 0.750000
vt 0.625000 0.881002
vt 0.625000 1.000000
vt 0.375000 1.000000
vt 0.375000 0.750000
vt 0.375000 1.000000
vt 0.375000 0.961630
vt 0.375000 0.868998
vt 0.375000 0.750000
vt 0.625000 0.500000
vt 0.625000 0.500000
vt 0.625000 0.500000
vt 0.375000 0.500000
vt 0.375000 0.500000
vt 0.375000 0.750000
vt 0.625000 0.000000
vt 0.375000 0.750000
vt 0.375000 0.750000
vt 0.382788 0.500000
vt 0.617212 0.500000
vt 0.375000 0.500000
vt 0.375000 0.500000
vt 0.375000 0.500000
vt 0.743998 0.500000
vt 0.743998 0.750000
vt 0.625000 0.750000
vt 0.625000 0.750000
vt 0.625000 0.750000
vt 0.625000 0.750000
vt 0.625000 0.750000
vt 0.256002 0.500000
vt 0.256002 0.750000
vt 0.375000 0.368998
vt 0.375000 0.381002
vt 0.375000 0.288370
vt 0.375000 0.250000
vt 0.375000 0.000000
vt 0.625000 0.868998
vt 0.625000 0.961630
vt 0.625000 1.000000
vt 0.375000 0.750000
vt 0.375000 0.750000
vt 0.622719 0.750000
vt 0.377281 0.500000
vt 0.625000 0.500000
vt 0.625000 0.500000
vt 0.375000 0.500000
vt 0.625000 0.750000
vt 0.125000 0.750000
vt 0.125000 0.500000
vt 0.375000 0.250000
vt 0.375000 0.000000
vt 0.875000 0.500000
vt 0.875000 0.750000
vt 0.625000 0.000000
vt 0.625000 0.250000
vn -1.0000 0.0000 0.0000
vn -0.0000 0.0000 -1.0000
vn -0.0000 0.0000 1.0000
vn 0.0000 -1.0000 0.0000
vn -0.9808 0.1951 0.0000
vn 0.9808 0.1951 0.0000
vn 0.9808 -0.1951 0.0000
vn 0.0000 1.0000 0.0000
vn -0.1951 0.9808 0.0000
vn -0.1951 -0.9808 0.0000
vn 1.0000 0.0000 0.0000
vn -0.9808 -0.1951 0.0000
vn 0.1951 -0.9808 0.0000
vn 0.1951 0.9808 0.0000
vn 0.7071 0.7071 0.0000
vn 0.7071 -0.7071 0.0000
vn -0.7071 -0.7071 0.0000
vn -0.7071 0.7071 0.0000
usemtl None
s 1
f 45/60/16 46/61/16 48/62/16 47/63/16
f 79/64/17 78/65/17 48/62/17 90/66/17 92/67/17 91/68/17 50/69/17
f 63/70/18 62/71/18 66/72/18 69/73/18 46/74/18 45/75/18
f 64/76/18 63/70/18 45/75/18 84/77/18 86/78/18 85/79/18 51/80/18
f 76/81/17 79/64/17 50/69/17 59/82/17 55/83/17
f 51/80/19 49/84/19 58/85/19 57/86/19
f 48/62/16 46/61/16 88/87/20 90/66/20
f 61/88/18 64/76/18 51/80/18 57/86/18 53/89/18
f 71/90/21 77/91/22 66/72/22 62/71/21
f 49/84/17 73/92/17 72/93/17 54/94/17 58/85/17
f 50/69/23 91/95/24 87/96/24 52/97/23
f 52/97/18 68/98/18 67/99/18 56/100/18 60/101/18
f 81/102/25 49/84/19 51/80/19 85/103/25
f 54/94/26 53/89/26 57/86/26 58/85/26
f 56/100/26 55/83/26 59/82/26 60/101/26
f 47/63/17 74/104/17 73/92/17 49/84/17 81/105/17 83/106/17 82/107/17
f 45/60/16 47/63/16 82/107/27 84/108/27
f 47/63/17 48/62/17 78/65/17 77/91/17 71/90/17 74/104/17
f 46/74/18 69/73/18 68/98/18 52/97/18 87/109/18 89/110/18 88/111/18
f 50/69/23 52/97/23 60/101/23 59/82/23
f 67/99/28 76/81/28 55/83/19 56/100/19
f 61/88/18 65/112/18 62/113/18 63/70/18 64/76/18
f 66/72/18 70/114/18 67/99/18 68/98/18 69/73/18
f 71/90/17 75/115/17 72/93/17 73/92/17 74/104/17
f 76/81/17 80/116/17 77/117/17 78/65/17 79/64/17
f 61/88/29 72/93/29 75/118/30 65/112/30
f 65/112/30 75/118/30 71/90/21 62/71/21
f 76/81/28 67/99/28 70/119/31 80/116/31
f 80/116/31 70/119/31 66/72/22 77/91/22
f 81/102/25 85/103/25 86/120/32 83/121/32
f 83/122/32 86/123/32 84/108/27 82/107/27
f 87/96/24 91/95/24 92/124/33 89/125/33
f 89/126/33 92/127/33 90/66/20 88/87/20
f 72/93/29 61/88/29 53/89/23 54/94/23
f 93/128/16 94/129/16 96/130/16 95/131/16
f 127/132/17 126/133/17 96/130/17 138/134/17 140/135/17 139/136/17 98/137/17
f 111/138/18 110/139/18 114/140/18 117/141/18 94/142/18 93/143/18
f 112/144/18 111/138/18 93/143/18 132/145/18 134/146/18 133/147/18 99/148/18
f 124/149/17 127/132/17 98/137/17 107/150/17 103/151/17
f 99/148/19 97/152/19 106/153/19 105/154/19
f 96/130/16 94/129/16 136/155/20 138/134/20
f 109/156/18 112/144/18 99/148/18 105/154/18 101/157/18
f 119/158/21 125/159/22 114/140/22 110/139/21
f 97/152/17 121/160/17 120/161/17 102/162/17 106/153/17
f 98/137/23 139/163/24 135/164/24 100/165/23
f 100/165/18 116/166/18 115/167/18 104/168/18 108/169/18
f 129/170/25 97/152/19 99/148/19 133/171/25
f 102/162/26 101/157/26 105/154/26 106/153/26
f 104/168/26 103/151/26 107/150/26 108/169/26
f 95/131/17 122/172/17 121/160/17 97/152/17 129/173/17 131/174/17 130/175/17
f 93/128/16 95/131/16 130/175/27 132/176/27
f 95/131/17 96/130/17 126/133/17 125/159/17 119/158/17 122/172/17
f 94/142/18 117/141/18 116/166/18 100/165/18 135/177/18 137/178/18 136/179/18
f 98/137/23 100/165/23 108/169/23 107/150/23
f 115/167/28 124/149/28 103/151/19 104/168/19
f 109/156/18 113/180/18 110/181/18 111/138/18 112/144/18
f 114/140/18 118/182/18 115/167/18 116/166/18 117/141/18
f 119/158/17 123/183/17 120/161/17 121/160/17 122/172/17
f 124/149/17 128/184/17 125/185/17 126/133/17 127/132/17
f 109/156/29 120/161/29 123/186/30 113/180/30
f 113/180/30 123/186/30 119/158/21 110/139/21
f 124/149/28 115/167/28 118/187/31 128/184/31
f 128/184/31 118/187/31 114/140/22 125/159/22
f 129/170/25 133/171/25 134/188/32 131/189/32
f 131/190/32 134/191/32 132/176/27 130/175/27
f 135/164/24 139/163/24 140/192/33 137/193/33
f 137/194/33 140/195/33 138/134/20 136/155/20
f 120/161/29 109/156/29 101/157/23 102/162/23
g Cube.004_Cube.003
v 1.008488 5.756910 13.782933
v 1.008488 5.756910 11.166047
v 1.008488 7.450184 11.514541
v 1.008488 7.486341 11.730577
v 1.008488 7.347218 11.331394
v 1.008488 7.193117 11.209019
v 1.008488 7.011343 11.166047
v 1.008488 7.486341 13.218403
v 1.008488 7.450184 13.434440
v 1.008488 7.347218 13.617586
v 1.008488 7.193117 13.739961
v 1.008488 7.011343 13.782933
v 1.008488 1.426615 11.188170
v 1.008488 1.426615 13.760810
v 1.008488 5.690978 13.760810
v 1.008488 5.690978 11.188170
v 0.905439 5.756910 13.782933
v 0.777878 5.884471 13.631329
v 0.815240 5.794272 13.738529
v 0.777878 5.884471 11.317651
v 0.905439 5.756910 11.166047
v 0.815240 5.794272 11.210451
v 0.905439 7.450184 11.514541
v 0.777878 7.330024 11.573693
v 0.815240 7.414990 11.531866
v 0.777878 7.358781 11.745509
v 0.905439 7.486341 11.730577
v 0.815240 7.448980 11.734950
v 0.905439 7.347218 11.331394
v 0.777878 7.255251 11.440695
v 0.815240 7.320281 11.363407
v 0.905439 7.193117 11.209019
v 0.777878 7.143345 11.351828
v 0.815240 7.178539 11.250847
v 0.905439 7.011343 11.166047
v 0.777878 6.998779 11.317651
v 0.815240 7.007663 11.210451
v 0.905439 7.486341 13.218403
v 0.777878 7.358781 13.203470
v 0.815240 7.448980 13.214029
v 0.777878 7.330024 13.375287
v 0.905439 7.450184 13.434440
v 0.815240 7.414990 13.417114
v 0.777878 7.255251 13.508286
v 0.905439 7.347218 13.617586
v 0.815240 7.320281 13.585573
v 0.777878 7.143345 13.597153
v 0.905439 7.193117 13.739961
v 0.815240 7.178539 13.698133
v 0.777878 6.998779 13.631329
v 0.905439 7.011343 13.782933
v 0.815240 7.007663 13.738529
v 0.777878 1.560296 11.347049
v 0.911560 1.426615 11.188170
v 0.817033 1.465769 11.234705
v 0.911560 1.426615 13.760810
v 0.777878 1.560296 13.601932
v 0.817033 1.465769 13.714275
v 0.911560 5.690978 13.760810
v 0.777878 5.557297 13.601932
v 0.817033 5.651824 13.714275
v 0.911560 5.690978 11.188170
v 0.777878 5.557297 11.347049
v 0.817033 5.651824 11.234705
vt 0.625000 1.000000
vt 0.625000 1.000000
vt 0.625000 1.000000
vt 0.625000 1.000000
vt 0.625000 1.000000
vt 0.625000 1.000000
vt 0.625000 1.000000
vt 0.625000 1.000000
vt 0.625000 0.250000
vt 0.375000 0.250000
vt 0.375000 0.250000
vt 0.625000 0.250000
vt 0.625000 0.235517
vt 0.625000 0.014483
vt 0.625000 0.014483
vt 0.625000 0.017748
vt 0.625000 0.026238
vt 0.625000 0.038944
vt 0.625000 0.055358
vt 0.625000 0.194642
vt 0.625000 0.211056
vt 0.625000 0.223762
vt 0.625000 0.232252
vt 0.625000 0.235517
vt 0.875000 0.533293
vt 0.875000 0.500000
vt 0.875000 0.500000
vt 0.875000 0.533293
vt 0.875000 0.553931
vt 0.875000 0.553931
vt 0.382837 0.015439
vt 0.617163 0.015439
vt 0.617163 0.234561
vt 0.382837 0.234561
vt 0.875000 0.696069
vt 0.875000 0.696069
vt 0.625000 0.250000
vt 0.625000 0.250000
vt 0.625000 0.250000
vt 0.625000 0.250000
vt 0.625000 0.000000
vt 0.625000 0.000000
vt 0.625000 0.250000
vt 0.625000 0.250000
vt 0.625000 0.250000
vt 0.625000 0.250000
vt 0.875000 0.716707
vt 0.875000 0.716707
vt 0.375000 1.000000
vt 0.625000 1.000000
vt 0.625000 1.000000
vt 0.375000 1.000000
vt 0.875000 0.750000
vt 0.875000 0.750000
vt 0.625000 0.247879
vt 0.625000 0.004242
vt 0.625000 0.000000
vt 0.625000 0.196478
vt 0.625000 0.215880
vt 0.875000 0.534120
vt 0.875000 0.553522
vt 0.625000 0.217409
vt 0.625000 0.233502
vt 0.875000 0.501335
vt 0.875000 0.531958
vt 0.625000 0.234673
vt 0.625000 0.245426
vt 0.625000 0.250000
vt 0.625000 0.250000
vt 0.625000 0.246059
vt 0.625000 0.249918
vt 0.625000 0.250000
vt 0.625000 0.034120
vt 0.625000 0.053522
vt 0.875000 0.696478
vt 0.875000 0.715880
vt 0.625000 0.016498
vt 0.625000 0.032591
vt 0.875000 0.718042
vt 0.875000 0.748665
vt 0.625000 0.004574
vt 0.625000 0.015327
vt 0.625000 1.000000
vt 0.625000 1.000000
vt 0.625000 0.000082
vt 0.625000 0.003941
vt 0.625000 1.000000
vt 0.625000 1.000000
vt 0.625000 0.000000
vt 0.625000 0.000000
vt 0.875000 0.554349
vt 0.875000 0.695651
vt 0.625000 0.054349
vt 0.625000 0.195651
vt 0.625000 0.000000
vt 0.125000 0.500000
vt 0.125000 0.750000
vt 0.125000 0.745478
vt 0.125000 0.504522
vt 0.375000 0.245478
vt 0.375000 0.004522
vt 0.622705 1.000000
vt 0.377295 1.000000
vt 0.377295 0.000000
vt 0.622705 0.000000
vt 0.623852 0.247739
vt 0.625000 0.004522
vt 0.377295 0.250000
vt 0.125000 0.500000
vt 0.125000 0.750000
vn 0.0000 0.1158 0.9933
vn 0.0000 0.4364 0.8997
vn -0.2186 0.4233 0.8792
vn -0.2237 0.1124 0.9682
vn 0.0000 0.7610 0.6487
vn -0.2079 0.7421 0.6373
vn 0.0000 0.0000 1.0000
vn -0.1977 0.0000 0.9803
vn 0.0000 0.0000 -1.0000
vn -0.1977 0.0000 -0.9803
vn -0.9807 -0.1526 -0.1225
vn -0.9807 -0.1526 0.1225
vn -0.9840 0.0211 0.1771
vn -0.9815 0.0868 0.1706
vn -0.9797 0.1554 0.1264
vn -0.9781 0.1972 0.0664
vn -0.9790 0.2032 0.0165
vn -0.9790 0.2032 -0.0165
vn -0.9781 0.1972 -0.0664
vn -0.9797 0.1554 -0.1264
vn -0.9815 0.0868 -0.1706
vn -0.9840 0.0211 -0.1771
vn 0.0000 0.9431 -0.3325
vn 0.0000 0.7610 -0.6487
vn -0.2079 0.7421 -0.6373
vn -0.1982 0.9236 -0.3280
vn 0.0000 0.9966 -0.0828
vn -0.1942 0.9776 -0.0816
vn -0.9807 0.1526 0.1225
vn -0.9807 0.1526 -0.1225
vn 0.0000 0.9966 0.0828
vn -0.1942 0.9776 0.0816
vn 0.0000 0.1158 -0.9933
vn -0.2237 0.1124 -0.9682
vn 0.0000 1.0000 0.0000
vn -0.1643 0.9864 0.0000
vn 0.0000 0.4364 -0.8997
vn -0.2185 0.4233 -0.8792
vn 0.0000 0.9431 0.3325
vn -0.1982 0.9236 0.3280
vn -0.9661 -0.1783 -0.1867
vn -0.9661 -0.1783 0.1867
vn -0.3827 -0.9239 0.0000
vn -0.1643 -0.9864 0.0000
vn -0.9247 0.3793 -0.0321
vn -0.9295 0.3465 -0.1263
vn -0.3962 0.8676 -0.3005
vn -0.3847 0.9199 -0.0758
vn -0.9366 0.2629 -0.2316
vn -0.4155 0.6976 -0.5837
vn -0.9435 0.1408 -0.3000
vn -0.4381 0.3986 -0.8057
vn -0.9446 0.0373 -0.3261
vn -0.4427 0.1049 -0.8905
vn -0.9295 0.3465 0.1263
vn -0.9247 0.3793 0.0321
vn -0.3847 0.9199 0.0758
vn -0.3962 0.8676 0.3005
vn -0.9366 0.2629 0.2316
vn -0.4155 0.6976 0.5837
vn -0.9435 0.1408 0.3000
vn -0.4381 0.3986 0.8057
vn -0.9446 0.0373 0.3261
vn -0.4427 0.1049 0.8905
vn -0.4417 0.0000 -0.8972
vn -0.4417 0.0000 0.8972
vn 0.0000 -1.0000 0.0000
vn -0.9661 0.1783 0.1867
vn -0.3827 0.9239 0.0000
vn -0.9661 0.1783 -0.1867
usemtl None
s 1
f 152/196/34 151/197/35 188/198/36 191/199/37
f 151/197/35 150/200/38 185/201/39 188/198/36
f 141/202/40 152/196/34 191/199/37 157/203/41
f 156/204/42 153/205/42 194/206/43 202/207/43
f 160/208/44 158/209/45 190/210/46 187/211/47 184/212/48 181/213/49 179/214/50 166/215/51 164/216/52 170/217/53 173/218/54 176/219/55
f 143/220/56 145/221/57 169/222/58 163/223/59
f 144/224/60 143/220/56 163/223/59 167/225/61
f 197/226/45 200/227/62 203/228/63 193/229/44
f 148/230/64 144/224/60 167/225/61 178/231/65
f 147/232/66 142/233/42 161/234/43 175/235/67
f 155/236/68 156/204/68 202/207/69 199/237/69
f 146/238/70 147/232/66 175/235/67 172/239/71
f 145/240/57 146/238/70 172/239/71 169/241/58
f 149/242/72 148/230/64 178/231/65 182/243/73
f 154/244/40 155/245/40 199/246/41 196/247/41
f 150/248/38 149/242/72 182/243/73 185/249/39
f 158/209/45 160/208/44 162/250/74 159/251/75
f 159/251/76 162/250/76 161/234/77 157/252/77
f 164/216/52 166/215/51 168/253/78 165/254/79
f 165/255/80 168/256/81 167/225/61 163/223/59
f 170/217/53 164/216/52 165/257/79 171/258/82
f 171/259/83 165/260/80 163/223/59 169/222/58
f 173/218/54 170/217/53 171/261/82 174/262/84
f 174/263/85 171/264/83 169/241/58 172/239/71
f 176/219/55 173/218/54 174/265/84 177/266/86
f 177/267/87 174/263/85 172/239/71 175/235/67
f 179/214/50 181/213/49 183/268/88 180/269/89
f 180/270/90 183/271/91 182/243/73 178/231/65
f 181/213/49 184/212/48 186/272/92 183/273/88
f 183/274/91 186/275/93 185/249/39 182/243/73
f 184/212/48 187/211/47 189/276/94 186/277/92
f 186/278/93 189/279/95 188/198/36 185/201/39
f 187/211/47 190/210/46 192/280/96 189/281/94
f 189/279/95 192/282/97 191/199/37 188/198/36
f 175/235/67 161/234/43 162/250/98 177/267/87
f 177/267/86 162/250/74 160/208/44 176/219/55
f 157/203/41 191/199/37 192/282/97 159/283/99
f 159/284/75 192/285/96 190/210/46 158/209/45
f 178/231/65 167/225/61 168/286/81 180/287/90
f 180/288/89 168/289/78 166/215/51 179/214/50
f 142/233/100 141/290/100 157/252/77 161/234/77
f 194/291/77 196/292/77 198/293/76 195/294/76
f 195/295/74 198/296/75 197/226/45 193/229/44
f 196/247/41 199/246/41 201/297/99 198/298/99
f 198/299/75 201/300/101 200/227/62 197/226/45
f 199/237/69 202/207/69 204/301/102 201/302/102
f 201/302/101 204/301/103 203/228/63 200/227/62
f 202/207/43 194/206/43 195/303/98 204/301/98
f 204/301/103 195/303/74 193/229/44 203/228/63
f 153/304/100 154/305/100 196/292/77 194/291/77
