# Blender v3.2.2 OBJ File: 'projectgamejam.blend'
# www.blender.org
mtllib SideTable.mtl
g Cube.007
v 4.606577 1.448188 0.306069
v 4.606577 2.008836 0.306069
v 5.743089 1.448188 0.306069
v 5.743089 2.008836 0.306069
v 4.606577 1.448188 0.348272
v 4.606577 2.008836 0.348272
v 5.743089 2.008836 0.348272
v 5.743089 1.448188 0.348272
v 4.606577 0.848188 0.306069
v 4.606577 1.408836 0.306069
v 5.743089 0.848188 0.306069
v 5.743089 1.408836 0.306069
v 4.606577 0.848188 0.348272
v 4.606577 1.408836 0.348272
v 5.743089 1.408836 0.348272
v 5.743089 0.848188 0.348272
vt 0.375000 0.750000
vt 0.375000 1.000000
vt 0.625000 1.000000
vt 0.625000 0.750000
vt 0.375000 0.750000
vt 0.625000 0.750000
vt 0.625000 1.000000
vt 0.375000 1.000000
vt 0.375000 0.750000
vt 0.375000 1.000000
vt 0.625000 1.000000
vt 0.625000 0.750000
vt 0.375000 0.750000
vt 0.625000 0.750000
vt 0.625000 1.000000
vt 0.375000 1.000000
vn 0.0000 0.0000 -1.0000
vn 0.0000 0.0000 1.0000
vn 0.0000 -1.0000 0.0000
vn -1.0000 0.0000 0.0000
vn 0.0000 1.0000 0.0000
vn 1.0000 0.0000 0.0000
usemtl None
s off
f 3/1/1 1/2/1 2/3/1 4/4/1
f 8/5/2 7/6/2 6/7/2 5/8/2
f 1/2/3 3/1/3 8/5/3 5/8/3
f 2/3/4 1/2/4 5/8/4 6/7/4
f 4/4/5 2/3/5 6/7/5 7/6/5
f 3/1/6 4/4/6 7/6/6 8/5/6
f 11/9/1 9/10/1 10/11/1 12/12/1
f 16/13/2 15/14/2 14/15/2 13/16/2
f 9/10/3 11/9/3 16/13/3 13/16/3
f 10/11/4 9/10/4 13/16/4 14/15/4
f 12/12/5 10/11/5 14/15/5 15/14/5
f 11/9/6 12/12/6 15/14/6 16/13/6
g Cube.008
v 4.473324 0.442677 0.312363
v 4.473324 0.727003 0.312363
v 4.473324 0.442677 0.058307
v 4.473324 0.727003 0.058307
v 4.727379 0.442677 0.312363
v 4.727379 0.727003 0.312363
v 4.727379 0.442677 0.058307
v 4.727379 0.727003 0.058307
v 5.876343 0.442677 0.312363
v 5.876343 0.727003 0.312363
v 5.876343 0.442677 0.058307
v 5.876343 0.727003 0.058307
v 5.622287 0.442677 0.312363
v 5.622287 0.727003 0.312363
v 5.622287 0.442677 0.058307
v 5.622287 0.727003 0.058307
v 4.473324 0.442677 -1.090656
v 4.473324 0.727003 -1.090656
v 4.473324 0.442677 -0.836600
v 4.473324 0.727003 -0.836600
v 4.727379 0.442677 -1.090656
v 4.727379 0.727003 -1.090656
v 4.727379 0.442677 -0.836600
v 4.727379 0.727003 -0.836600
v 5.876343 0.442677 -1.090656
v 5.876343 0.727003 -1.090656
v 5.876343 0.442677 -0.836600
v 5.876343 0.727003 -0.836600
v 5.622287 0.442677 -1.090656
v 5.622287 0.727003 -1.090656
v 5.622287 0.442677 -0.836600
v 5.622287 0.727003 -0.836600
v 4.473323 0.727003 0.312363
v 4.473323 2.130021 0.312363
v 4.473323 0.727003 -1.090656
v 4.473323 2.130021 -1.090656
v 5.876342 0.727003 0.312363
v 5.876342 2.130021 0.312363
v 5.876342 0.727003 -1.090656
v 5.876342 2.130021 -1.090656
v 4.394973 2.118365 0.390713
v 4.394973 2.118365 -1.169006
v 5.954692 2.118365 -1.169006
v 5.954692 2.118365 0.390713
v 4.394973 2.350411 0.390713
v 4.394973 2.350411 -1.169006
v 5.954692 2.350411 -1.169006
v 5.954692 2.350411 0.390713
vt 0.375000 0.000000
vt 0.625000 0.000000
vt 0.625000 0.250000
vt 0.375000 0.250000
vt 0.625000 0.500000
vt 0.375000 0.500000
vt 0.625000 0.750000
vt 0.375000 0.750000
vt 0.625000 1.000000
vt 0.375000 1.000000
vt 0.125000 0.500000
vt 0.125000 0.750000
vt 0.875000 0.500000
vt 0.875000 0.750000
vt 0.375000 0.000000
vt 0.375000 0.250000
vt 0.625000 0.250000
vt 0.625000 0.000000
vt 0.375000 0.500000
vt 0.625000 0.500000
vt 0.375000 0.750000
vt 0.625000 0.750000
vt 0.375000 1.000000
vt 0.625000 1.000000
vt 0.125000 0.500000
vt 0.125000 0.750000
vt 0.875000 0.750000
vt 0.875000 0.500000
vt 0.375000 0.000000
vt 0.375000 0.250000
vt 0.625000 0.250000
vt 0.625000 0.000000
vt 0.375000 0.500000
vt 0.625000 0.500000
vt 0.375000 0.750000
vt 0.625000 0.750000
vt 0.375000 1.000000
vt 0.625000 1.000000
vt 0.125000 0.500000
vt 0.125000 0.750000
vt 0.875000 0.750000
vt 0.875000 0.500000
vt 0.375000 0.000000
vt 0.625000 0.000000
vt 0.625000 0.250000
vt 0.375000 0.250000
vt 0.625000 0.500000
vt 0.375000 0.500000
vt 0.625000 0.750000
vt 0.375000 0.750000
vt 0.625000 1.000000
vt 0.375000 1.000000
vt 0.125000 0.500000
vt 0.125000 0.750000
vt 0.875000 0.500000
vt 0.875000 0.750000
vt 0.375000 0.000000
vt 0.625000 0.000000
vt 0.625000 0.250000
vt 0.375000 0.250000
vt 0.625000 0.500000
vt 0.375000 0.500000
vt 0.625000 0.750000
vt 0.375000 0.750000
vt 0.625000 1.000000
vt 0.375000 1.000000
vt 0.125000 0.500000
vt 0.125000 0.750000
vt 0.625000 0.750000
vt 0.625000 1.000000
vt 0.625000 0.000000
vt 0.625000 0.250000
vt 0.625000 0.500000
vt 0.625000 0.250000
vt 0.625000 0.500000
vt 0.875000 0.500000
vt 0.875000 0.750000
vt 0.625000 0.750000
vt 0.625000 0.000000
vt 0.625000 1.000000
vn -1.0000 0.0000 0.0000
vn 0.0000 0.0000 -1.0000
vn 1.0000 0.0000 0.0000
vn 0.0000 0.0000 1.0000
vn 0.0000 -1.0000 0.0000
vn 0.0000 1.0000 0.0000
vn 0.0000 -0.9891 -0.1472
vn 0.1472 -0.9891 0.0000
vn -0.1472 -0.9891 0.0000
vn 0.0000 -0.9891 0.1472
usemtl None
s off
f 17/17/7 18/18/7 20/19/7 19/20/7
f 19/20/8 20/19/8 24/21/8 23/22/8
f 23/22/9 24/21/9 22/23/9 21/24/9
f 21/24/10 22/23/10 18/25/10 17/26/10
f 19/27/11 23/22/11 21/24/11 17/28/11
f 24/21/12 20/29/12 18/30/12 22/23/12
f 25/31/9 27/32/9 28/33/9 26/34/9
f 27/32/8 31/35/8 32/36/8 28/33/8
f 31/35/7 29/37/7 30/38/7 32/36/7
f 29/37/10 25/39/10 26/40/10 30/38/10
f 27/41/11 25/42/11 29/37/11 31/35/11
f 32/36/12 30/38/12 26/43/12 28/44/12
f 33/45/7 35/46/7 36/47/7 34/48/7
f 35/46/10 39/49/10 40/50/10 36/47/10
f 39/49/9 37/51/9 38/52/9 40/50/9
f 37/51/8 33/53/8 34/54/8 38/52/8
f 35/55/11 33/56/11 37/51/11 39/49/11
f 40/50/12 38/52/12 34/57/12 36/58/12
f 41/59/9 42/60/9 44/61/9 43/62/9
f 43/62/10 44/61/10 48/63/10 47/64/10
f 47/64/7 48/63/7 46/65/7 45/66/7
f 45/66/8 46/65/8 42/67/8 41/68/8
f 43/69/11 47/64/11 45/66/11 41/70/11
f 48/63/12 44/71/12 42/72/12 46/65/12
f 49/73/7 50/74/7 52/75/7 51/76/7
f 51/76/8 52/75/8 56/77/8 55/78/8
f 55/78/9 56/77/9 54/79/9 53/80/9
f 53/80/10 54/79/10 50/81/10 49/82/10
f 51/83/11 55/78/11 53/80/11 49/84/11
f 50/81/13 54/79/13 60/85/13 57/86/13
f 52/75/14 50/74/14 57/87/14 58/88/14
f 54/79/15 56/77/15 59/89/15 60/85/15
f 56/77/16 52/75/16 58/88/16 59/89/16
f 59/89/8 58/88/8 62/90/8 63/91/8
f 63/91/12 62/92/12 61/93/12 64/94/12
f 60/85/9 59/89/9 63/91/9 64/94/9
f 58/88/7 57/87/7 61/95/7 62/90/7
f 57/86/10 60/85/10 64/94/10 61/96/10
g Sphere.014
v 5.180003 1.860015 0.310570
v 5.180003 1.841409 0.277486
v 5.180003 1.780716 0.247617
v 5.180003 1.747870 0.255380
v 5.180003 1.720024 0.277486
v 5.180003 1.701418 0.310570
v 5.213800 1.860015 0.330083
v 5.242452 1.841409 0.313541
v 5.261596 1.813563 0.302488
v 5.268319 1.780716 0.298606
v 5.261596 1.747870 0.302488
v 5.242452 1.720024 0.313541
v 5.213800 1.701418 0.330083
v 5.213800 1.860015 0.369108
v 5.242452 1.841409 0.385650
v 5.261596 1.813563 0.396703
v 5.268319 1.780716 0.400584
v 5.261596 1.747870 0.396703
v 5.242452 1.720024 0.385650
v 5.213800 1.701418 0.369108
v 5.180003 1.866549 0.349595
v 5.180003 1.860015 0.388621
v 5.180003 1.841409 0.421705
v 5.180003 1.813563 0.443811
v 5.180003 1.780716 0.451574
v 5.180003 1.747870 0.443811
v 5.180003 1.720024 0.421705
v 5.180003 1.701418 0.388621
v 5.146206 1.860015 0.369108
v 5.117555 1.841409 0.385650
v 5.098410 1.813563 0.396703
v 5.091688 1.780716 0.400584
v 5.098410 1.747870 0.396703
v 5.117555 1.720024 0.385650
v 5.146206 1.701418 0.369108
v 5.146206 1.860015 0.330083
v 5.117555 1.841409 0.313541
v 5.098410 1.813563 0.302488
v 5.091688 1.780716 0.298606
v 5.098410 1.747870 0.302488
v 5.117555 1.720024 0.313541
v 5.146206 1.701418 0.330083
v 5.180003 1.694884 0.349595
v 5.180003 1.813563 0.255380
vt 0.666667 0.500000
vt 0.666667 0.625000
vt 0.500000 0.625000
vt 0.500000 0.500000
vt 0.666667 0.750000
vt 0.666667 0.875000
vt 0.500000 0.875000
vt 0.500000 0.750000
vt 0.666667 0.125000
vt 0.666667 0.250000
vt 0.500000 0.250000
vt 0.500000 0.125000
vt 0.666667 0.375000
vt 0.500000 0.375000
vt 0.583333 1.000000
vt 0.583333 0.000000
vt 0.333333 0.250000
vt 0.333333 0.125000
vt 0.333333 0.500000
vt 0.333333 0.375000
vt 0.333333 0.750000
vt 0.333333 0.625000
vt 0.416667 1.000000
vt 0.333333 0.875000
vt 0.416667 0.000000
vt 0.250000 1.000000
vt 0.166667 0.875000
vt 0.250000 0.000000
vt 0.166667 0.125000
vt 0.166667 0.375000
vt 0.166667 0.250000
vt 0.166667 0.625000
vt 0.166667 0.500000
vt 0.166667 0.750000
vt 0.000000 0.375000
vt 0.000000 0.250000
vt 0.000000 0.625000
vt 0.000000 0.500000
vt 0.000000 0.875000
vt 0.000000 0.750000
vt 0.000000 0.125000
vt 0.083333 1.000000
vt 0.083333 0.000000
vt 1.000000 0.125000
vt 1.000000 0.250000
vt 0.833333 0.250000
vt 0.833333 0.125000
vt 1.000000 0.375000
vt 1.000000 0.500000
vt 0.833333 0.500000
vt 0.833333 0.375000
vt 1.000000 0.625000
vt 1.000000 0.750000
vt 0.833333 0.750000
vt 0.833333 0.625000
vt 1.000000 0.875000
vt 0.916667 1.000000
vt 0.833333 0.875000
vt 0.916667 0.000000
vt 0.750000 1.000000
vt 0.750000 0.000000
vn 0.0000 -0.0000 -1.0000
vn 0.0000 0.4111 -0.9116
vn 0.7895 0.4111 -0.4558
vn 0.8660 0.0000 -0.5000
vn 0.0000 0.7310 -0.6824
vn 0.0000 0.9244 -0.3814
vn 0.3303 0.9244 -0.1907
vn 0.5910 0.7310 -0.3412
vn 0.0000 -0.9244 -0.3814
vn 0.0000 -0.7310 -0.6824
vn 0.5910 -0.7310 -0.3412
vn 0.3303 -0.9244 -0.1907
vn 0.0000 -0.4111 -0.9116
vn 0.7895 -0.4111 -0.4558
vn -0.0000 1.0000 -0.0000
vn 0.0000 -1.0000 0.0000
vn 0.5910 -0.7310 0.3412
vn 0.3303 -0.9244 0.1907
vn 0.8660 0.0000 0.5000
vn 0.7895 -0.4111 0.4558
vn 0.5910 0.7310 0.3412
vn 0.7895 0.4111 0.4558
vn 0.3303 0.9244 0.1907
vn 0.0000 0.9244 0.3814
vn -0.0000 -0.9244 0.3814
vn -0.0000 -0.4111 0.9116
vn 0.0000 -0.7310 0.6824
vn 0.0000 0.4111 0.9116
vn -0.0000 0.0000 1.0000
vn 0.0000 0.7310 0.6824
vn -0.7895 -0.4111 0.4558
vn -0.5910 -0.7310 0.3412
vn -0.7895 0.4111 0.4558
vn -0.8660 0.0000 0.5000
vn -0.3303 0.9244 0.1907
vn -0.5910 0.7310 0.3412
vn -0.3303 -0.9244 0.1907
vn -0.5910 -0.7310 -0.3412
vn -0.3303 -0.9244 -0.1907
vn -0.8660 -0.0000 -0.5000
vn -0.7895 -0.4111 -0.4558
vn -0.5910 0.7310 -0.3412
vn -0.7895 0.4111 -0.4558
vn -0.3303 0.9244 -0.1907
usemtl Part8Mtl.001
s 1
f 67/97/17 108/98/18 73/99/19 74/100/20
f 66/101/21 65/102/22 71/103/23 72/104/24
f 70/105/25 69/106/26 76/107/27 77/108/28
f 68/109/29 67/97/17 74/100/20 75/110/30
f 108/98/18 66/101/21 72/104/24 73/99/19
f 65/102/22 85/111/31 71/103/23
f 107/112/32 70/105/25 77/108/28
f 69/106/26 68/109/29 75/110/30 76/107/27
f 77/108/28 76/107/27 83/113/33 84/114/34
f 75/110/30 74/100/20 81/115/35 82/116/36
f 73/99/19 72/104/24 79/117/37 80/118/38
f 71/103/23 85/119/31 78/120/39
f 107/121/32 77/108/28 84/114/34
f 76/107/27 75/110/30 82/116/36 83/113/33
f 74/100/20 73/99/19 80/118/38 81/115/35
f 72/104/24 71/103/23 78/120/39 79/117/37
f 78/120/39 85/122/31 86/123/40
f 107/124/32 84/114/34 92/125/41
f 83/113/33 82/116/36 90/126/42 91/127/43
f 81/115/35 80/118/38 88/128/44 89/129/45
f 79/117/37 78/120/39 86/123/40 87/130/46
f 84/114/34 83/113/33 91/127/43 92/125/41
f 82/116/36 81/115/35 89/129/45 90/126/42
f 80/118/38 79/117/37 87/130/46 88/128/44
f 91/127/43 90/126/42 97/131/47 98/132/48
f 89/129/45 88/128/44 95/133/49 96/134/50
f 87/130/46 86/123/40 93/135/51 94/136/52
f 92/125/41 91/127/43 98/132/48 99/137/53
f 90/126/42 89/129/45 96/134/50 97/131/47
f 88/128/44 87/130/46 94/136/52 95/133/49
f 86/123/40 85/138/31 93/135/51
f 107/139/32 92/125/41 99/137/53
f 99/140/53 98/141/48 105/142/54 106/143/55
f 97/144/47 96/145/50 103/146/56 104/147/57
f 95/148/49 94/149/52 101/150/58 102/151/59
f 93/152/51 85/153/31 100/154/60
f 107/155/32 99/140/53 106/143/55
f 98/141/48 97/144/47 104/147/57 105/142/54
f 96/145/50 95/148/49 102/151/59 103/146/56
f 94/149/52 93/152/51 100/154/60 101/150/58
f 104/147/57 103/146/56 67/97/17 68/109/29
f 102/151/59 101/150/58 66/101/21 108/98/18
f 100/154/60 85/156/31 65/102/22
f 107/157/32 106/143/55 70/105/25
f 105/142/54 104/147/57 68/109/29 69/106/26
f 103/146/56 102/151/59 108/98/18 67/97/17
f 101/150/58 100/154/60 65/102/22 66/101/21
f 106/143/55 105/142/54 69/106/26 70/105/25
g Sphere.013_Sphere.015
v 5.180003 1.258529 0.310570
v 5.180003 1.239923 0.277486
v 5.180003 1.179231 0.247617
v 5.180003 1.146384 0.255380
v 5.180003 1.118538 0.277486
v 5.180003 1.099932 0.310570
v 5.213800 1.258529 0.330083
v 5.242452 1.239923 0.313541
v 5.261596 1.212077 0.302488
v 5.268319 1.179231 0.298606
v 5.261596 1.146384 0.302488
v 5.242452 1.118538 0.313541
v 5.213800 1.099932 0.330083
v 5.213800 1.258529 0.369108
v 5.242452 1.239923 0.385650
v 5.261596 1.212077 0.396703
v 5.268319 1.179231 0.400584
v 5.261596 1.146384 0.396703
v 5.242452 1.118538 0.385650
v 5.213800 1.099932 0.369108
v 5.180003 1.265063 0.349595
v 5.180003 1.258529 0.388621
v 5.180003 1.239923 0.421705
v 5.180003 1.212077 0.443811
v 5.180003 1.179231 0.451574
v 5.180003 1.146384 0.443811
v 5.180003 1.118538 0.421705
v 5.180003 1.099932 0.388621
v 5.146206 1.258529 0.369108
v 5.117555 1.239923 0.385650
v 5.098410 1.212077 0.396703
v 5.091688 1.179231 0.400584
v 5.098410 1.146384 0.396703
v 5.117555 1.118538 0.385650
v 5.146206 1.099932 0.369108
v 5.146206 1.258529 0.330083
v 5.117555 1.239923 0.313541
v 5.098410 1.212077 0.302488
v 5.091688 1.179231 0.298606
v 5.098410 1.146384 0.302488
v 5.117555 1.118538 0.313541
v 5.146206 1.099932 0.330083
v 5.180003 1.093398 0.349595
v 5.180003 1.212077 0.255380
vt 0.666667 0.500000
vt 0.666667 0.625000
vt 0.500000 0.625000
vt 0.500000 0.500000
vt 0.666667 0.750000
vt 0.666667 0.875000
vt 0.500000 0.875000
vt 0.500000 0.750000
vt 0.666667 0.125000
vt 0.666667 0.250000
vt 0.500000 0.250000
vt 0.500000 0.125000
vt 0.666667 0.375000
vt 0.500000 0.375000
vt 0.583333 1.000000
vt 0.583333 0.000000
vt 0.333333 0.250000
vt 0.333333 0.125000
vt 0.333333 0.500000
vt 0.333333 0.375000
vt 0.333333 0.750000
vt 0.333333 0.625000
vt 0.416667 1.000000
vt 0.333333 0.875000
vt 0.416667 0.000000
vt 0.250000 1.000000
vt 0.166667 0.875000
vt 0.250000 0.000000
vt 0.166667 0.125000
vt 0.166667 0.375000
vt 0.166667 0.250000
vt 0.166667 0.625000
vt 0.166667 0.500000
vt 0.166667 0.750000
vt 0.000000 0.375000
vt 0.000000 0.250000
vt 0.000000 0.625000
vt 0.000000 0.500000
vt 0.000000 0.875000
vt 0.000000 0.750000
vt 0.000000 0.125000
vt 0.083333 1.000000
vt 0.083333 0.000000
vt 1.000000 0.125000
vt 1.000000 0.250000
vt 0.833333 0.250000
vt 0.833333 0.125000
vt 1.000000 0.375000
vt 1.000000 0.500000
vt 0.833333 0.500000
vt 0.833333 0.375000
vt 1.000000 0.625000
vt 1.000000 0.750000
vt 0.833333 0.750000
vt 0.833333 0.625000
vt 1.000000 0.875000
vt 0.916667 1.000000
vt 0.833333 0.875000
vt 0.916667 0.000000
vt 0.750000 1.000000
vt 0.750000 0.000000
vn 0.0000 -0.0000 -1.0000
vn 0.0000 0.4111 -0.9116
vn 0.7895 0.4111 -0.4558
vn 0.8660 0.0000 -0.5000
vn 0.0000 0.7310 -0.6824
vn 0.0000 0.9244 -0.3814
vn 0.3303 0.9244 -0.1907
vn 0.5910 0.7310 -0.3412
vn 0.0000 -0.9244 -0.3814
vn 0.0000 -0.7310 -0.6824
vn 0.5910 -0.7310 -0.3412
vn 0.3303 -0.9244 -0.1907
vn 0.0000 -0.4111 -0.9116
vn 0.7895 -0.4111 -0.4558
vn -0.0000 1.0000 -0.0000
vn 0.0000 -1.0000 0.0000
vn 0.5910 -0.7310 0.3412
vn 0.3303 -0.9244 0.1907
vn 0.8660 0.0000 0.5000
vn 0.7895 -0.4111 0.4558
vn 0.5910 0.7310 0.3412
vn 0.7895 0.4111 0.4558
vn 0.3303 0.9244 0.1907
vn 0.0000 0.9244 0.3814
vn -0.0000 -0.9244 0.3814
vn -0.0000 -0.4111 0.9116
vn -0.0000 -0.7310 0.6824
vn -0.0000 0.4111 0.9116
vn -0.0000 0.0000 1.0000
vn 0.0000 0.7310 0.6824
vn -0.7895 -0.4111 0.4558
vn -0.5910 -0.7310 0.3412
vn -0.7895 0.4111 0.4558
vn -0.8660 0.0000 0.5000
vn -0.3303 0.9244 0.1907
vn -0.5910 0.7310 0.3412
vn -0.3303 -0.9244 0.1907
vn -0.5910 -0.7310 -0.3412
vn -0.3303 -0.9244 -0.1907
vn -0.8660 -0.0000 -0.5000
vn -0.7895 -0.4111 -0.4558
vn -0.5910 0.7310 -0.3412
vn -0.7895 0.4111 -0.4558
vn -0.3303 0.9244 -0.1907
usemtl Part8Mtl.001
s 1
f 111/158/61 152/159/62 117/160/63 118/161/64
f 110/162/65 109/163/66 115/164/67 116/165/68
f 114/166/69 113/167/70 120/168/71 121/169/72
f 112/170/73 111/158/61 118/161/64 119/171/74
f 152/159/62 110/162/65 116/165/68 117/160/63
f 109/163/66 129/172/75 115/164/67
f 151/173/76 114/166/69 121/169/72
f 113/167/70 112/170/73 119/171/74 120/168/71
f 121/169/72 120/168/71 127/174/77 128/175/78
f 119/171/74 118/161/64 125/176/79 126/177/80
f 117/160/63 116/165/68 123/178/81 124/179/82
f 115/164/67 129/180/75 122/181/83
f 151/182/76 121/169/72 128/175/78
f 120/168/71 119/171/74 126/177/80 127/174/77
f 118/161/64 117/160/63 124/179/82 125/176/79
f 116/165/68 115/164/67 122/181/83 123/178/81
f 122/181/83 129/183/75 130/184/84
f 151/185/76 128/175/78 136/186/85
f 127/174/77 126/177/80 134/187/86 135/188/87
f 125/176/79 124/179/82 132/189/88 133/190/89
f 123/178/81 122/181/83 130/184/84 131/191/90
f 128/175/78 127/174/77 135/188/87 136/186/85
f 126/177/80 125/176/79 133/190/89 134/187/86
f 124/179/82 123/178/81 131/191/90 132/189/88
f 135/188/87 134/187/86 141/192/91 142/193/92
f 133/190/89 132/189/88 139/194/93 140/195/94
f 131/191/90 130/184/84 137/196/95 138/197/96
f 136/186/85 135/188/87 142/193/92 143/198/97
f 134/187/86 133/190/89 140/195/94 141/192/91
f 132/189/88 131/191/90 138/197/96 139/194/93
f 130/184/84 129/199/75 137/196/95
f 151/200/76 136/186/85 143/198/97
f 143/201/97 142/202/92 149/203/98 150/204/99
f 141/205/91 140/206/94 147/207/100 148/208/101
f 139/209/93 138/210/96 145/211/102 146/212/103
f 137/213/95 129/214/75 144/215/104
f 151/216/76 143/201/97 150/204/99
f 142/202/92 141/205/91 148/208/101 149/203/98
f 140/206/94 139/209/93 146/212/103 147/207/100
f 138/210/96 137/213/95 144/215/104 145/211/102
f 148/208/101 147/207/100 111/158/61 112/170/73
f 146/212/103 145/211/102 110/162/65 152/159/62
f 144/215/104 129/217/75 109/163/66
f 151/218/76 150/204/99 114/166/69
f 149/203/98 148/208/101 112/170/73 113/167/70
f 147/207/100 146/212/103 152/159/62 111/158/61
f 145/211/102 144/215/104 109/163/66 110/162/65
f 150/204/99 149/203/98 113/167/70 114/166/69
